<svg width="41" height="40" viewBox="0 0 41 40" fill="none" xmlns="http://www.w3.org/2000/svg">
<path d="M29.7589 7.45065C29.6256 7.45065 29.4922 7.41732 29.3756 7.35065C26.1756 5.70065 23.4089 5.00065 20.0922 5.00065C16.7922 5.00065 13.6589 5.78398 10.8089 7.35065C10.4089 7.56732 9.90891 7.41732 9.67558 7.01732C9.45891 6.61732 9.60891 6.10065 10.0089 5.88398C13.1089 4.20065 16.5089 3.33398 20.0922 3.33398C23.6422 3.33398 26.7422 4.11732 30.1422 5.86732C30.5589 6.08398 30.7089 6.58398 30.4922 6.98398C30.3422 7.28398 30.0589 7.45065 29.7589 7.45065ZM5.90891 16.2007C5.74224 16.2007 5.57558 16.1507 5.42558 16.0507C5.04224 15.784 4.95891 15.2673 5.22558 14.884C6.87558 12.5507 8.97558 10.7173 11.4756 9.43398C16.7089 6.73398 23.4089 6.71732 28.6589 9.41732C31.1589 10.7007 33.2589 12.5173 34.9089 14.834C35.1756 15.2007 35.0922 15.734 34.7089 16.0007C34.3256 16.2673 33.8089 16.184 33.5422 15.8007C32.0422 13.7007 30.1422 12.0507 27.8922 10.9007C23.1089 8.45065 16.9922 8.45065 12.2256 10.9173C9.95891 12.084 8.05891 13.7507 6.55891 15.8507C6.42558 16.084 6.17558 16.2007 5.90891 16.2007ZM16.3256 36.3173C16.1089 36.3173 15.8922 36.234 15.7422 36.0673C14.2922 34.6173 13.5089 33.684 12.3922 31.6673C11.2422 29.6173 10.6422 27.1173 10.6422 24.434C10.6422 19.484 14.8756 15.4507 20.0756 15.4507C25.2756 15.4507 29.5089 19.484 29.5089 24.434C29.5089 24.9007 29.1422 25.2673 28.6756 25.2673C28.2089 25.2673 27.8422 24.9007 27.8422 24.434C27.8422 20.4007 24.3589 17.1173 20.0756 17.1173C15.7922 17.1173 12.3089 20.4007 12.3089 24.434C12.3089 26.834 12.8422 29.0507 13.8589 30.8507C14.9256 32.7673 15.6589 33.584 16.9422 34.884C17.2589 35.2173 17.2589 35.734 16.9422 36.0673C16.7589 36.234 16.5422 36.3173 16.3256 36.3173ZM28.2756 33.234C26.2922 33.234 24.5422 32.734 23.1089 31.7507C20.6256 30.0673 19.1422 27.334 19.1422 24.434C19.1422 23.9673 19.5089 23.6007 19.9756 23.6007C20.4422 23.6007 20.8089 23.9673 20.8089 24.434C20.8089 26.784 22.0089 29.0007 24.0422 30.3673C25.2256 31.1673 26.6089 31.5507 28.2756 31.5507C28.6756 31.5507 29.3422 31.5007 30.0089 31.384C30.4589 31.3007 30.8922 31.6007 30.9756 32.0673C31.0589 32.5173 30.7589 32.9507 30.2922 33.034C29.3422 33.2173 28.5089 33.234 28.2756 33.234ZM24.9256 36.6673C24.8589 36.6673 24.7756 36.6507 24.7089 36.634C22.0589 35.9007 20.3256 34.9173 18.5089 33.134C16.1756 30.8173 14.8922 27.734 14.8922 24.434C14.8922 21.734 17.1922 19.534 20.0256 19.534C22.8589 19.534 25.1589 21.734 25.1589 24.434C25.1589 26.2173 26.7089 27.6673 28.6256 27.6673C30.5422 27.6673 32.0922 26.2173 32.0922 24.434C32.0922 18.1507 26.6756 13.0507 20.0089 13.0507C15.2756 13.0507 10.9422 15.684 8.99224 19.7673C8.34224 21.1173 8.00891 22.7007 8.00891 24.434C8.00891 25.734 8.12558 27.784 9.12558 30.4507C9.29224 30.884 9.07558 31.3673 8.64224 31.5173C8.20891 31.684 7.72558 31.4507 7.57558 31.034C6.75891 28.8507 6.35891 26.684 6.35891 24.434C6.35891 22.434 6.74224 20.6173 7.49224 19.034C9.70891 14.384 14.6256 11.3673 20.0089 11.3673C27.5922 11.3673 33.7589 17.2173 33.7589 24.4173C33.7589 27.1173 31.4589 29.3173 28.6256 29.3173C25.7922 29.3173 23.4922 27.1173 23.4922 24.4173C23.4922 22.634 21.9422 21.184 20.0256 21.184C18.1089 21.184 16.5589 22.634 16.5589 24.4173C16.5589 27.2673 17.6589 29.934 19.6756 31.934C21.2589 33.5007 22.7756 34.3673 25.1256 35.0173C25.5756 35.134 25.8256 35.6007 25.7089 36.034C25.6256 36.4173 25.2756 36.6673 24.9256 36.6673Z" fill="#0066FF"/>
</svg>
